<?xml version="1.0" encoding="utf-8"?>
<svg version="1.1" x="0px" y="0px" viewBox="0 0 50 62.5" enable-background="new 0 0 50 50" xmlns="http://www.w3.org/2000/svg">
  <g>
    <path fill-rule="evenodd" clip-rule="evenodd" d="M18.343,7.009c0.971-0.401,2.094,0.064,2.498,1.035l6.576,15.882   c0.173,0.427,0.72,0.658,1.152,0.478c0.451-0.186,0.664-0.702,0.478-1.151l-2.317-5.597c-0.193-0.468-0.19-0.983,0.004-1.457   c0.197-0.475,0.562-0.842,1.031-1.035c0.465-0.195,0.983-0.195,1.461,0.002c0.475,0.197,0.841,0.562,1.035,1.032l2.68,6.475   c0.187,0.449,0.698,0.664,1.151,0.478c0.452-0.186,0.664-0.702,0.478-1.151l-1.698-4.107c-0.18-0.433-0.18-0.917,0.004-1.358   c0.181-0.439,0.52-0.782,0.955-0.963c0.901-0.373,1.948,0.057,2.321,0.962l1.897,4.581c0.189,0.454,0.709,0.658,1.152,0.478   c0.455-0.189,0.662-0.704,0.478-1.154l-0.917-2.213c-0.367-0.902,0.062-1.94,0.965-2.313c0.437-0.181,0.918-0.183,1.356,0.004   c0.441,0.181,0.782,0.522,0.963,0.955l5.132,12.506l0.074,0.213c0.458,1.86,0.492,4.098,0.524,6.263   c0.028,1.86,0.056,3.633,0.331,5.194l-13.916,5.761c-3.021-1.824-4.788-2.568-6.21-3.16c-1.615-0.674-2.781-1.159-5.071-2.885   c-1.056-0.794-2.195-1.872-3.296-2.913c-1.345-1.269-2.61-2.469-3.774-3.229c-1.196-0.781-2.433-2.207-2.301-3.003   c0.115-0.655,1.347-0.787,1.872-0.813c0.602-0.034,1.254,0.046,1.858,0.222c0.509,0.151,0.989,0.369,1.426,0.65   c1.071,0.689,4.72,2.929,7.577,3.424c0.356,0.059,0.651,0.067,0.932-0.204c0.248-0.231,0.365-0.653,0.223-0.969L17.312,9.506   C16.909,8.533,17.372,7.412,18.343,7.009 M22.47,7.37c-0.777-1.87-2.933-2.767-4.799-1.988c-1.871,0.774-2.763,2.929-1.99,4.799   l9.432,22.783c-2.331-0.805-4.881-2.392-5.467-2.769c-0.578-0.371-1.213-0.66-1.884-0.857c-0.79-0.235-1.631-0.333-2.445-0.295   c-2.746,0.138-3.382,1.484-3.519,2.277c-0.333,1.974,1.866,3.988,3.075,4.779c1.03,0.672,2.241,1.818,3.527,3.031   c1.136,1.077,2.314,2.187,3.445,3.039c2.469,1.861,3.788,2.409,5.452,3.105c1.502,0.626,3.204,1.336,6.357,3.27   c0.145,0.088,0.303,0.128,0.462,0.128c0.11,0,0.227-0.022,0.337-0.066l15.001-6.211c0.402-0.167,0.624-0.601,0.52-1.023   c-0.377-1.539-0.407-3.487-0.439-5.549c-0.032-2.263-0.068-4.602-0.574-6.656c-0.042-0.174-0.084-0.291-0.152-0.459l-5.135-12.51   c-0.359-0.87-1.039-1.551-1.918-1.912c-0.873-0.365-1.836-0.365-2.704-0.004c-0.618,0.257-1.115,0.674-1.484,1.178   c-0.874-1.521-2.752-2.211-4.411-1.519c-0.602,0.251-1.104,0.662-1.483,1.178c-0.401-0.706-1.009-1.264-1.776-1.581   c-0.913-0.379-1.908-0.377-2.809-0.004c-0.634,0.261-1.161,0.695-1.554,1.24L22.47,7.37z M16.237,1.921   c-1.908,0.788-3.394,2.277-4.184,4.185c-0.793,1.908-0.793,4.01,0,5.92c0.176,0.43,0.389,0.836,0.629,1.214   c0.26,0.409,0.811,0.53,1.216,0.268c0.411-0.261,0.532-0.807,0.269-1.218c-0.187-0.293-0.351-0.606-0.487-0.939   c-0.629-1.519-0.582-3.152,0-4.563c0.584-1.416,1.708-2.61,3.232-3.241c1.475-0.607,3.097-0.61,4.572,0.002   c1.472,0.612,2.62,1.76,3.229,3.232c0.14,0.339,0.249,0.686,0.323,1.031c0.104,0.476,0.554,0.776,1.051,0.674   c0.473-0.103,0.775-0.572,0.674-1.047c-0.099-0.448-0.239-0.893-0.418-1.332c-0.792-1.908-2.277-3.396-4.184-4.186   C20.247,1.13,18.147,1.128,16.237,1.921z M19.23,25.806c-1.719-1.007-3.723-1.287-5.642-0.783   c-1.924,0.501-3.537,1.721-4.542,3.436c-1.007,1.715-1.282,3.717-0.78,5.641c0.5,1.924,1.719,3.536,3.435,4.542   c0.387,0.227,0.786,0.413,1.19,0.564c0.447,0.18,0.965-0.068,1.133-0.517c0.171-0.453-0.06-0.961-0.517-1.132   c-0.309-0.116-0.616-0.259-0.913-0.435c-1.308-0.768-2.241-1.999-2.624-3.465c-0.382-1.468-0.17-2.997,0.598-4.305   c0.768-1.31,1.998-2.241,3.466-2.624c1.471-0.381,2.997-0.168,4.304,0.598c0.303,0.176,0.58,0.377,0.837,0.595   c0.373,0.319,0.929,0.276,1.244-0.094c0.317-0.369,0.273-0.927-0.096-1.245C19.986,26.298,19.624,26.035,19.23,25.806z M3.39,6.724   C3.001,7.015,2.921,7.566,3.21,7.955c0.294,0.391,0.844,0.471,1.236,0.181l0.752-0.562L2.15,28.582l-0.564-0.755   c-0.291-0.391-0.842-0.471-1.232-0.179c-0.391,0.291-0.471,0.845-0.179,1.234l1.836,2.457c0.291,0.39,0.844,0.468,1.232,0.179   l2.457-1.833c0.389-0.292,0.47-0.843,0.178-1.234c-0.293-0.391-0.845-0.469-1.233-0.179l-0.753,0.562L6.94,7.827l0.564,0.755   C7.796,8.97,8.349,9.049,8.736,8.76c0.392-0.293,0.472-0.845,0.179-1.234L7.079,5.069C6.79,4.679,6.236,4.599,5.847,4.89   L3.39,6.724z" style="fill: rgb(255, 255, 255);"/>
  </g>
</svg>