<svg xmlns="http://www.w3.org/2000/svg" xmlns:xlink="http://www.w3.org/1999/xlink" version="1.1" x="0px" y="0px" viewBox="0 0 48 60" style="enable-background:new 0 0 48 48;" xml:space="preserve"><g><g><path style="" d="    M19,32V6c0-1.657,1.344-3,3-3s3,1.343,3,3v17" fill="none" stroke="#FFFFFF" stroke-width="2" stroke-linecap="round" stroke-linejoin="round" stroke-miterlimit="10"/><path style="" d="    M25,13V4c0-1.657,1.344-3,3-3s3,1.343,3,3v20" fill="none" stroke="#FFFFFF" stroke-width="2" stroke-linecap="round" stroke-linejoin="round" stroke-miterlimit="10"/><path style="" d="    M31,26v-7c0-1.657,1.344-3,3-3s3,1.343,3,3v10" fill="none" stroke="#FFFFFF" stroke-width="2" stroke-linecap="round" stroke-linejoin="round" stroke-miterlimit="10"/><path style="" d="    M37,29v-6c0-1.657,1.344-3,3-3s3,1.343,3,3v9c0,8.284-6.716,15-15,15s-15-6.716-15-15v-7c0-3.313,2.688-6,6-6" fill="none" stroke="#FFFFFF" stroke-width="2" stroke-linecap="round" stroke-linejoin="round" stroke-miterlimit="10"/></g><g><polyline style="" points="    9,14 7,16 5,14   " fill="none" stroke="#FFFFFF" stroke-width="2" stroke-linecap="round" stroke-linejoin="round" stroke-miterlimit="10"/><polyline style="" points="    9,5 7,3 5,5   " fill="none" stroke="#FFFFFF" stroke-width="2" stroke-linecap="round" stroke-linejoin="round" stroke-miterlimit="10"/><line style="" x1="7" y1="3" x2="7" y2="16" fill="none" stroke="#FFFFFF" stroke-width="2" stroke-linecap="round" stroke-linejoin="round" stroke-miterlimit="10"/></g></g></svg>
